<svg xmlns="http://www.w3.org/2000/svg" viewBox="0 0 480.55 398.11">
  <defs>
    <style>
      .cls-1 {
        fill: #c6923e;
      }

      .cls-2, .cls-5 {
        fill: #4f382f;
      }

      .cls-3 {
        fill: #ffce55;
      }

      .cls-4 {
        fill: #705143;
      }

      .cls-5 {
        opacity: 0.44;
      }

      .cls-6 {
        fill: #936c58;
      }

      .cls-7 {
        fill: #f7ea4d;
      }

      .cls-8 {
        fill: #ba863c;
      }

      .cls-9 {
        fill: #c9943f;
      }

      .cls-10 {
        fill: #e5ac45;
      }

      .cls-11, .cls-14, .cls-15, .cls-16 {
        fill: #fff;
      }

      .cls-12 {
        fill: #c1ae40;
      }

      .cls-13 {
        fill: #bf873d;
      }

      .cls-14 {
        opacity: 0.1;
      }

      .cls-15 {
        opacity: 0.2;
      }

      .cls-16 {
        opacity: 0.7;
      }
    </style>
  </defs>
  <g id="Layer_2" data-name="Layer 2">
    <g id="win_page" data-name="win page">
      <g>
        <g>
          <path class="cls-1" d="M334.39.87A34.66,34.66,0,0,1,342.32,0,32.6,32.6,0,0,1,354,1.59a15.69,15.69,0,0,1,8.87,7.46c1.71,3.49,1.67,7.56,1.5,11.44a2.7,2.7,0,0,1-.34,1.41,2.64,2.64,0,0,1-2,.8l-8.36.8c-.55-3.44,1.43-7.19-.1-10.32-1.35-2.76-4.81-3.67-7.87-3.94a20.12,20.12,0,0,0-9.44,1,9.93,9.93,0,0,0-6.13,6.87c-.22,1.14-.26,2.47-1.17,3.2a3.69,3.69,0,0,1-2.27.56C308.42,21.15,325.31,3.12,334.39.87Z"/>
          <polygon class="cls-2" points="6.07 171.95 156.15 150.61 358.55 185.66 214.14 217.33 6.07 171.95"/>
          <polygon class="cls-2" points="240.25 15.34 156.15 150.61 358.55 185.66 457.94 22.87 240.25 15.34"/>
          <path class="cls-3" d="M158.09,147.5,0,168.43l214.76,45.48L359.49,184Zm-135,22,133.07-18.92L338.69,184,214.76,207.39Z"/>
          <polygon class="cls-4" points="457.94 22.87 480.56 97.41 425.46 180.7 359.5 183.97 457.94 22.87"/>
          <polygon class="cls-4" points="243.97 22.84 261.16 79.51 219.85 152.23 169.8 144.93 243.97 22.84"/>
          <path class="cls-5" d="M451.77,22.87,353.32,184l66-3.27,55.09-83.29ZM415.29,168.2l-39.66,3.26L448.75,50.58l14,42.81Z"/>
          <path class="cls-1" d="M457.94,22.87,359.49,184l66-3.27,55.09-83.29ZM421.46,168.2l-39.65,3.26L454.92,50.58l14,42.81Z"/>
          <path class="cls-3" d="M240.25,15.34l-84.1,135.27,202.4,35L457.94,22.87ZM355.13,172l-185.33-27,75-122.06L433,29.52Z"/>
          <polygon class="cls-6" points="261.16 79.51 401.3 87.53 355.13 171.95 219.85 152.23 261.16 79.51"/>
          <path class="cls-3" d="M327.41.87A34.54,34.54,0,0,1,335.34,0,32.55,32.55,0,0,1,347,1.59a15.69,15.69,0,0,1,8.87,7.46c1.71,3.49,1.68,7.56,1.5,11.44a2.53,2.53,0,0,1-.34,1.41,2.62,2.62,0,0,1-2,.8l-8.37.8c-.55-3.44,1.44-7.19-.09-10.32-1.35-2.76-4.81-3.67-7.87-3.94a20.1,20.1,0,0,0-9.44,1,9.89,9.89,0,0,0-6.13,6.87c-.23,1.14-.26,2.47-1.17,3.2a3.7,3.7,0,0,1-2.28.56c-6.23.08-8.3-.18-8.16-3C312.08,7.63,321.42,2.35,327.41.87Z"/>
        </g>
        <path class="cls-7" d="M49.56,149.66c6-8.33,16.1-12.7,26.09-15s20.35-3,30.19-5.86c12.09-3.53,25.25-10.32,36.42-4.49,5.28,2.76,11.65-.24,17.36,1.43,8.64,2.53,14.45,4.24,21.76-1,3.83-2.76,8.42-5.37,13-4.33a16.17,16.17,0,0,1,4.74,2.13A77.78,77.78,0,0,1,220.92,142c2.49,3.28,5,7,8.89,8.27,3.13,1,6.53.34,9.81.51,8.43.44,16,6.64,24.38,6.11,3.37-.21,6.58-1.5,9.93-1.91,6.52-.81,12.94,1.74,19,4.24,8,3.3,16.06,6.6,23.81,10.5,9.35,4.69,19.23,11.63,20.51,22,1.09,8.82-4.58,17.11-11.19,23-15.25,13.71-36.3,19.54-56.8,20s-40.76-4-60.74-8.6-40.1-9.43-60.6-9.75c-20.2-.32-40.21,3.75-60.38,4.68-10.21.47-20.72.08-30.16-3.83-5.94-2.46-11.45-6.44-14.59-12-3.38-6-4.83-11.15-9.91-16.07-3.95-3.83-7.44-7.65-6-13.62,1.51-6.27,6.75-7.57,11.4-10.77C43.75,161.08,45.84,154.82,49.56,149.66Z"/>
        <g>
          <polygon class="cls-4" points="214.14 217.33 358.55 185.66 363.09 327.19 214.14 390.53 214.14 217.33"/>
          <path class="cls-5" d="M230.57,253.71a5.35,5.35,0,0,0,7.13-7.46,27.73,27.73,0,0,0,16.09-.09,21.19,21.19,0,0,0-9.8-10.65,4.28,4.28,0,0,0,4.22-3.54,6.25,6.25,0,0,0-1.94-5.45,12,12,0,0,0-5.26-2.8c-4.17-1.2-9-1.08-12.43,1.6-3.25,2.55-4.59,7-4.44,11.08C224.31,240.92,226,251.26,230.57,253.71Z"/>
          <path class="cls-5" d="M227.77,340.8c.88-3,2.94-6.32,6-6.12,2.74.18,4.45,3.12,4.94,5.82a23.52,23.52,0,0,1,11.89-9.38,24.26,24.26,0,0,1-1.53,14.2c2.3-1.07,5.19-1.78,7.24-.28,1.8,1.31,2.21,3.87,1.89,6.08-.72,5.1-4.35,9.31-8.31,12.61s-8.29,5.89-13.23,6.67a10,10,0,0,1-4.94-.28c-2.7-1-4.5-3.66-5.2-6.45-.88-3.45,0-6.57,0-10C226.72,349.22,226.48,345.18,227.77,340.8Z"/>
          <path class="cls-8" d="M230.57,252a5.36,5.36,0,0,0,7.13-7.47,27.73,27.73,0,0,0,16.09-.09,21.19,21.19,0,0,0-9.8-10.65,4.28,4.28,0,0,0,4.22-3.54,6.25,6.25,0,0,0-1.94-5.45A12,12,0,0,0,241,222c-4.17-1.2-9-1.08-12.43,1.6-3.25,2.55-4.59,6.95-4.44,11.08C224.31,239.19,226,249.53,230.57,252Z"/>
          <path class="cls-8" d="M224.49,340.8c.88-3,2.93-6.32,6-6.12,2.74.18,4.45,3.12,4.94,5.82a23.52,23.52,0,0,1,11.89-9.38,24.26,24.26,0,0,1-1.53,14.2c2.3-1.07,5.19-1.78,7.24-.28,1.8,1.31,2.21,3.87,1.89,6.08-.72,5.1-4.35,9.31-8.31,12.61s-8.29,5.89-13.23,6.67a10,10,0,0,1-4.94-.28c-2.7-1-4.5-3.66-5.2-6.45-.88-3.45,0-6.57,0-10C223.44,349.22,223.2,345.18,224.49,340.8Z"/>
          <path class="cls-5" d="M341.42,324.38a17.56,17.56,0,0,1-8,1.7c-2.75-.23-5.55-1.8-6.49-4.39s.66-6,3.4-6.34a21.25,21.25,0,0,1-12.24-9.66,24.87,24.87,0,0,1,15.34,1c-2.54-2.23-2.59-6.55-.44-9.16a9,9,0,0,1,9.22-2.63,13.4,13.4,0,0,1,7.71,6.21,17.81,17.81,0,0,1-11.64,26.64c-.69.14-1.76-.25-1.41-.86Z"/>
          <path class="cls-5" d="M332.86,200.28a19.45,19.45,0,0,0-8.32,3.08c-2.29,1.53-4.37,3.82-4.46,6.57s2.79,5.51,5.33,4.45a23.91,23.91,0,0,0-3.73,16,21.77,21.77,0,0,0,14.5-9.55,4.11,4.11,0,0,0,3,4.48,6.21,6.21,0,0,0,5.53-1.46,13,13,0,0,0,3.29-4.9,29.66,29.66,0,0,0,2.39-10.9,11.47,11.47,0,0,0-1-5.6c-1.71-3.32-5.74-4.77-9.47-4.92a21.14,21.14,0,0,0-11.73,3Z"/>
          <path class="cls-8" d="M334.24,197.11a19.3,19.3,0,0,0-8.32,3.07c-2.29,1.53-4.37,3.82-4.46,6.57s2.79,5.51,5.33,4.45a23.93,23.93,0,0,0-3.73,16,21.77,21.77,0,0,0,14.5-9.55,4.12,4.12,0,0,0,3,4.49,6.24,6.24,0,0,0,5.53-1.47,13,13,0,0,0,3.29-4.89,29.71,29.71,0,0,0,2.39-10.91,11.49,11.49,0,0,0-1-5.6c-1.71-3.32-5.74-4.77-9.47-4.92a21.14,21.14,0,0,0-11.73,3Z"/>
          <path class="cls-8" d="M342.8,323a17.7,17.7,0,0,1-8,1.71c-2.75-.23-5.54-1.8-6.49-4.39s.66-6,3.4-6.35a21.21,21.21,0,0,1-12.24-9.66,24.87,24.87,0,0,1,15.34,1c-2.54-2.23-2.59-6.55-.45-9.17a9.05,9.05,0,0,1,9.23-2.63,13.44,13.44,0,0,1,7.71,6.21,17.81,17.81,0,0,1-11.64,26.64c-.69.14-1.76-.25-1.41-.85Z"/>
          <polygon class="cls-6" points="5.8 171.95 5.8 296.66 213.88 390.53 213.88 217.33 5.8 171.95"/>
          <path class="cls-5" d="M27.34,277.39c2.22,1.6,2.55,2.65,3.26,5.3,4.82-3.16,8.79-4.2,14.54-4.63a20.73,20.73,0,0,1-5.45,12.67c2.47-.11,3.31-.58,5.39.76,2.48,1.6,3.45,4.75,3.74,7.68.41,4.2-.28,8.71-3,12a2.91,2.91,0,0,1-1.46,1.09,3.2,3.2,0,0,1-1.27,0,125.29,125.29,0,0,1-24-6.2,7.83,7.83,0,0,1-3.82-2.35,8.18,8.18,0,0,1-1.18-4.08c-.53-5.16-2.09-13.25.92-17.91C17.54,277.89,23.08,274.32,27.34,277.39Z"/>
          <path class="cls-5" d="M171,345a24.49,24.49,0,0,1-2.77-14.71,17.4,17.4,0,0,1,15.4,5c-.27-4.4,4.4-8.37,8.71-7.38,4.68,1.07,7,6.33,8,11a99.89,99.89,0,0,1,1.88,15.62c.17,2.93.27,6-.88,8.68-4.26,10-17.7,7.14-24.35,1.65C172.8,361.52,161.81,348.77,171,345Z"/>
          <path class="cls-5" d="M173,229.92c-2,3.84-.21,9.37,3.9,10.67A26.61,26.61,0,0,0,167.45,251a25.28,25.28,0,0,0,15.4-2.56,9,9,0,0,0,15.66,6c2-2.17,2.82-5.17,3.44-8.06,1.24-5.73,1.86-12.23-1.6-17C195.23,222.45,177.28,221.49,173,229.92Z"/>
          <path class="cls-5" d="M27.1,217a6.81,6.81,0,0,0,6.1-5.79,47.58,47.58,0,0,0,9.49,7.66,41.12,41.12,0,0,0-2.1-11.26,7.73,7.73,0,0,0,6.23-8.86,1.81,1.81,0,0,0-.43-.94,2.12,2.12,0,0,0-1-.43l-25.26-5.89C19.68,197.76,15.83,217.75,27.1,217Z"/>
          <path class="cls-9" d="M25.36,277.39c2.22,1.6,2.56,2.65,3.26,5.3,4.82-3.16,8.79-4.2,14.54-4.63a20.73,20.73,0,0,1-5.45,12.67c2.48-.11,3.31-.58,5.39.76,2.48,1.6,3.45,4.75,3.74,7.68.42,4.2-.28,8.71-3,12a2.91,2.91,0,0,1-1.46,1.09,3.21,3.21,0,0,1-1.27,0A125.48,125.48,0,0,1,17.2,306a7.88,7.88,0,0,1-3.82-2.35,8.07,8.07,0,0,1-1.17-4.08c-.54-5.16-2.1-13.25.91-17.91C15.57,277.89,21.1,274.32,25.36,277.39Z"/>
          <path class="cls-9" d="M173.83,345a24.5,24.5,0,0,1-2.78-14.71,17.39,17.39,0,0,1,15.4,5c-.27-4.4,4.41-8.37,8.71-7.38,4.68,1.07,7,6.33,8,11a99.89,99.89,0,0,1,1.88,15.62c.16,2.93.26,6-.88,8.68-4.26,10-17.71,7.14-24.36,1.65C175.67,361.52,164.68,348.77,173.83,345Z"/>
          <path class="cls-9" d="M174.28,227.29c-2,3.84-.21,9.37,3.9,10.68a26.65,26.65,0,0,0-9.43,10.44,25.41,25.41,0,0,0,15.4-2.56,9,9,0,0,0,15.67,6c2-2.17,2.81-5.17,3.44-8.06,1.23-5.73,1.85-12.23-1.6-17C196.54,219.82,178.59,218.87,174.28,227.29Z"/>
          <path class="cls-9" d="M24.44,212.65a6.82,6.82,0,0,0,6.1-5.79A47.3,47.3,0,0,0,40,214.52a41.12,41.12,0,0,0-2.1-11.26,7.74,7.74,0,0,0,6.23-8.86,1.85,1.85,0,0,0-.43-.94,2,2,0,0,0-1-.43l-25.26-5.89C17,193.42,13.17,213.41,24.44,212.65Z"/>
          <path class="cls-1" d="M359.49,184,214.76,213.91l-.62,184.2,149-66.33Zm-10,138.71L229.68,373.47V227.93l116.77-28.45Z"/>
          <polygon class="cls-1" points="12.51 299.56 17.65 296.09 17.65 187.23 12.51 186.04 12.51 299.56"/>
          <polygon class="cls-3" points="17.65 296.09 197.84 365.05 197.84 373.47 12.51 299.56 17.65 296.09"/>
          <polygon class="cls-10" points="349.45 322.68 346.45 199.48 341.74 200.63 345.59 319.79 349.45 322.68"/>
          <polygon class="cls-3" points="229.68 365.66 345.59 319.79 349.45 322.68 229.68 373.47 229.68 365.66"/>
          <path class="cls-5" d="M80.3,236.84c-3.42,4.15-12.1,5.7-16.68,2.88-.13,5.34,4,11.34,8.25,14.6,2.44,1.89,7,2.64,10.06,3a9,9,0,0,0,8.29-3.06c-1.46,5.75-.29,11.9,2.11,17.32s3.54,11.71,7.07,16.47c9.56-4.95,16.17-15.88,14.07-26.44,1.81,5.4,8.37,7.35,14,7.93a15.28,15.28,0,0,0,14.42-7.32c-5.29-2.48-11-5.35-13.44-10.65-1.66-3.58-1.54-7.7-1.39-11.64.33-8.57,1.53-19.09,1.86-27.66,0-.77-30.18-3.84-33-4.39-2.55-.51-12.19-3.86-13.84-1.71S83.72,232.68,80.3,236.84Z"/>
          <path class="cls-10" d="M77.65,232.69c-3.61,4-10.11,5.63-14.56,2.6-.38,5.33,3,10.25,7.12,13.71a17.66,17.66,0,0,0,8.1,4.26,8.92,8.92,0,0,0,8.42-2.66C85,256.27,85.88,262.48,88,268s5.47,10.5,8.78,15.42A25.76,25.76,0,0,0,111.11,257,14.94,14.94,0,0,0,138,261c-5.17-2.72-10.72-5.86-12.92-11.27-1.49-3.66-1.17-7.77-.84-11.7q1.11-12.81,2.2-25.62c.07-.76-29-7.18-31.75-7.87-2.53-.62-12-4.43-13.74-2.36S81.26,228.7,77.65,232.69Z"/>
          <polygon class="cls-5" points="25.11 298.94 25.11 196 197.84 242.8 197.84 229.07 17.65 187.23 17.65 296.09 25.11 298.94"/>
          <path class="cls-10" d="M0,168.43l2.44,140.2,211.7,89.48.62-184.2Zm197.84,205L12.51,299.56V186l185.33,43Z"/>
          <g>
            <ellipse class="cls-5" cx="8.56" cy="177.74" rx="4" ry="4.97"/>
            <path class="cls-3" d="M11.08,176.93c0,2.74-1.79,5-4,5s-4-2.23-4-5,1.79-5,4-5S11.08,174.18,11.08,176.93Z"/>
            <path class="cls-11" d="M4.58,174.82a2.66,2.66,0,0,0-.38,1.57,1.54,1.54,0,0,0,.9,1.28.82.82,0,0,0,.41.06c.4-.06.61-.49.85-.81a2.32,2.32,0,0,1,1.17-.85,2,2,0,0,0,.8-.35.9.9,0,0,0,.22-.76,2,2,0,0,0-.33-.74C7.2,172.73,5.31,173.5,4.58,174.82Z"/>
          </g>
          <g>
            <path class="cls-5" d="M31.57,199.81c0,1.93-1.26,3.5-2.82,3.5s-2.83-1.57-2.83-3.5,1.27-3.51,2.83-3.51S31.57,197.87,31.57,199.81Z"/>
            <path class="cls-3" d="M30.52,199.23c0,1.94-1.26,3.51-2.82,3.51s-2.83-1.57-2.83-3.51,1.27-3.51,2.83-3.51S30.52,197.3,30.52,199.23Z"/>
            <path class="cls-11" d="M25.93,197.75a2,2,0,0,0-.26,1.11,1.08,1.08,0,0,0,.63.9.49.49,0,0,0,.29,0c.28,0,.43-.34.6-.57a1.66,1.66,0,0,1,.83-.6,1.4,1.4,0,0,0,.57-.25.63.63,0,0,0,.15-.53,1.34,1.34,0,0,0-.24-.53C27.78,196.27,26.45,196.81,25.93,197.75Z"/>
          </g>
          <g>
            <path class="cls-5" d="M33.73,291.32c0,1.94-1.26,3.51-2.82,3.51s-2.83-1.57-2.83-3.51,1.27-3.5,2.83-3.5S33.73,289.39,33.73,291.32Z"/>
            <path class="cls-3" d="M32.69,290.75c0,1.94-1.27,3.51-2.83,3.51S27,292.69,27,290.75s1.26-3.51,2.82-3.51S32.69,288.81,32.69,290.75Z"/>
            <path class="cls-11" d="M28.1,289.27a1.89,1.89,0,0,0-.27,1.11,1.1,1.1,0,0,0,.63.9.78.78,0,0,0,.3,0c.28,0,.43-.34.59-.57a1.66,1.66,0,0,1,.83-.6,1.4,1.4,0,0,0,.57-.25.65.65,0,0,0,.15-.54,1.43,1.43,0,0,0-.23-.52C30,287.79,28.62,288.33,28.1,289.27Z"/>
          </g>
          <g>
            <path class="cls-5" d="M190.23,349.3c0,2.92-1.91,5.28-4.25,5.28s-4.26-2.36-4.26-5.28S183.63,344,186,344,190.23,346.38,190.23,349.3Z"/>
            <path class="cls-3" d="M188.65,348.44c0,2.92-1.9,5.28-4.25,5.28s-4.25-2.36-4.25-5.28,1.9-5.28,4.25-5.28S188.65,345.52,188.65,348.44Z"/>
            <path class="cls-11" d="M181.74,346.21a2.87,2.87,0,0,0-.4,1.66,1.66,1.66,0,0,0,1,1.36.83.83,0,0,0,.44.06c.42-.06.64-.51.9-.86a2.45,2.45,0,0,1,1.24-.9,2,2,0,0,0,.85-.37.92.92,0,0,0,.23-.81,1.94,1.94,0,0,0-.35-.79C184.53,344,182.53,344.79,181.74,346.21Z"/>
          </g>
          <g>
            <path class="cls-5" d="M194.18,239.52c0,2.91-1.9,5.28-4.25,5.28s-4.25-2.37-4.25-5.28,1.9-5.28,4.25-5.28S194.18,236.6,194.18,239.52Z"/>
            <ellipse class="cls-3" cx="188.36" cy="238.66" rx="4.25" ry="5.28"/>
            <path class="cls-11" d="M185.7,236.42a2.9,2.9,0,0,0-.4,1.67,1.67,1.67,0,0,0,1,1.36.9.9,0,0,0,.43.06c.43-.07.65-.52.9-.86a2.6,2.6,0,0,1,1.25-.91,2.1,2.1,0,0,0,.85-.37.93.93,0,0,0,.23-.8,2.08,2.08,0,0,0-.35-.79C188.49,234.2,186.48,235,185.7,236.42Z"/>
          </g>
          <g>
            <path class="cls-5" d="M242.24,235.35c0,2.91-1.9,5.28-4.25,5.28s-4.25-2.37-4.25-5.28,1.9-5.28,4.25-5.28S242.24,232.43,242.24,235.35Z"/>
            <path class="cls-10" d="M240.67,234.49c0,2.91-1.91,5.28-4.25,5.28s-4.26-2.37-4.26-5.28,1.91-5.29,4.26-5.29S240.67,231.57,240.67,234.49Z"/>
            <path class="cls-3" d="M233.76,232.25a2.82,2.82,0,0,0-.4,1.67,1.64,1.64,0,0,0,.95,1.36.94.94,0,0,0,.44.06c.42-.07.65-.52.9-.86a2.55,2.55,0,0,1,1.24-.91,2.14,2.14,0,0,0,.86-.37,1,1,0,0,0,.23-.8,2.08,2.08,0,0,0-.35-.79C236.54,230,234.54,230.84,233.76,232.25Z"/>
          </g>
          <g>
            <path class="cls-5" d="M244,351.28c0,2.92-1.9,5.28-4.25,5.28s-4.25-2.36-4.25-5.28,1.9-5.28,4.25-5.28S244,348.36,244,351.28Z"/>
            <path class="cls-10" d="M242.42,350.42c0,2.92-1.9,5.28-4.25,5.28s-4.25-2.36-4.25-5.28,1.91-5.28,4.25-5.28S242.42,347.5,242.42,350.42Z"/>
            <path class="cls-3" d="M235.52,348.19a2.79,2.79,0,0,0-.4,1.66,1.64,1.64,0,0,0,.95,1.36.94.94,0,0,0,.44.06c.42-.06.65-.52.9-.86a2.62,2.62,0,0,1,1.24-.91,2,2,0,0,0,.86-.37,1,1,0,0,0,.23-.8,2,2,0,0,0-.36-.79C238.3,346,236.3,346.77,235.52,348.19Z"/>
          </g>
          <g>
            <path class="cls-5" d="M339,211.13c0,2.69-1.76,4.88-3.93,4.88s-3.93-2.19-3.93-4.88,1.76-4.89,3.93-4.89S339,208.43,339,211.13Z"/>
            <ellipse class="cls-10" cx="333.65" cy="210.33" rx="3.93" ry="4.88"/>
            <path class="cls-3" d="M331.2,208.27a2.63,2.63,0,0,0-.37,1.54,1.52,1.52,0,0,0,.88,1.25.82.82,0,0,0,.41.06c.39-.06.59-.48.83-.8a2.29,2.29,0,0,1,1.15-.83,2,2,0,0,0,.79-.34.88.88,0,0,0,.21-.75,1.72,1.72,0,0,0-.33-.73C333.77,206.21,331.92,207,331.2,208.27Z"/>
          </g>
          <g>
            <path class="cls-5" d="M343.35,312.69c0,2.7-1.76,4.88-3.93,4.88s-3.93-2.18-3.93-4.88,1.76-4.88,3.93-4.88S343.35,310,343.35,312.69Z"/>
            <path class="cls-10" d="M341.9,311.9c0,2.69-1.76,4.88-3.94,4.88S334,314.59,334,311.9,335.79,307,338,307,341.9,309.2,341.9,311.9Z"/>
            <path class="cls-3" d="M335.51,309.83a2.63,2.63,0,0,0-.37,1.54,1.52,1.52,0,0,0,.88,1.26.72.72,0,0,0,.41.05c.39-.06.59-.47.83-.79a2.31,2.31,0,0,1,1.15-.84,2,2,0,0,0,.79-.34.88.88,0,0,0,.21-.75,1.69,1.69,0,0,0-.33-.72C338.08,307.77,336.23,308.53,335.51,309.83Z"/>
          </g>
          <g>
            <path class="cls-5" d="M13.3,303c0,2.74-1.79,5-4,5s-4-2.23-4-5,1.79-5,4-5S13.3,300.23,13.3,303Z"/>
            <path class="cls-3" d="M11.82,302.17c0,2.74-1.79,5-4,5s-4-2.23-4-5,1.79-5,4-5S11.82,299.42,11.82,302.17Z"/>
            <path class="cls-11" d="M5.32,300.06a2.66,2.66,0,0,0-.38,1.57,1.54,1.54,0,0,0,.9,1.28.82.82,0,0,0,.41.06c.4-.06.61-.49.85-.81a2.4,2.4,0,0,1,1.17-.86,2,2,0,0,0,.8-.34.87.87,0,0,0,.22-.76,2,2,0,0,0-.33-.74C7.94,298,6.05,298.73,5.32,300.06Z"/>
          </g>
          <g>
            <ellipse class="cls-5" cx="204.81" cy="223.44" rx="5.09" ry="6.32"/>
            <path class="cls-3" d="M208,222.41c0,3.49-2.28,6.32-5.09,6.32s-5.09-2.83-5.09-6.32,2.28-6.32,5.09-6.32S208,218.92,208,222.41Z"/>
            <path class="cls-11" d="M199.75,219.74a3.48,3.48,0,0,0-.48,2,2,2,0,0,0,1.15,1.62.92.92,0,0,0,.52.08c.51-.08.77-.62,1.08-1a3,3,0,0,1,1.48-1.09,2.33,2.33,0,0,0,1-.44,1.14,1.14,0,0,0,.27-1,2.35,2.35,0,0,0-.42-.94C203.08,217.07,200.69,218.05,199.75,219.74Z"/>
          </g>
          <g>
            <path class="cls-5" d="M104.85,262.31c0,4.44-2.89,8-6.47,8s-6.47-3.6-6.47-8,2.9-8,6.47-8S104.85,257.87,104.85,262.31Z"/>
            <path class="cls-3" d="M102.46,261c0,4.44-2.9,8-6.48,8s-6.47-3.6-6.47-8,2.9-8,6.47-8S102.46,256.56,102.46,261Z"/>
            <path class="cls-11" d="M91.94,257.6a4.31,4.31,0,0,0-.61,2.54,2.5,2.5,0,0,0,1.46,2.06,1.26,1.26,0,0,0,.66.1c.65-.1,1-.79,1.37-1.32a3.87,3.87,0,0,1,1.89-1.37,3.18,3.18,0,0,0,1.3-.56,1.4,1.4,0,0,0,.35-1.23,3,3,0,0,0-.53-1.2C96.18,254.21,93.13,255.45,91.94,257.6Z"/>
          </g>
          <g>
            <path class="cls-5" d="M229.68,222.92c0,3.49-2.28,6.32-5.08,6.32s-5.09-2.83-5.09-6.32,2.28-6.32,5.09-6.32S229.68,219.43,229.68,222.92Z"/>
            <path class="cls-3" d="M227.8,221.89c0,3.49-2.28,6.32-5.09,6.32s-5.08-2.83-5.08-6.32,2.27-6.32,5.08-6.32S227.8,218.4,227.8,221.89Z"/>
            <path class="cls-11" d="M219.53,219.22a3.45,3.45,0,0,0-.47,2,2,2,0,0,0,1.14,1.62,1,1,0,0,0,.52.07c.51-.07.77-.62,1.08-1a3,3,0,0,1,1.48-1.08,2.58,2.58,0,0,0,1-.44,1.16,1.16,0,0,0,.27-1,2.27,2.27,0,0,0-.42-.94C222.87,216.56,220.47,217.53,219.53,219.22Z"/>
          </g>
          <g>
            <path class="cls-5" d="M228.74,383.69c0,3.49-2.28,6.32-5.09,6.32s-5.08-2.83-5.08-6.32,2.28-6.31,5.08-6.31S228.74,380.2,228.74,383.69Z"/>
            <path class="cls-3" d="M226.85,382.66c0,3.49-2.27,6.32-5.08,6.32s-5.09-2.83-5.09-6.32,2.28-6.31,5.09-6.31S226.85,379.17,226.85,382.66Z"/>
            <path class="cls-11" d="M218.59,380a3.46,3.46,0,0,0-.48,2,2,2,0,0,0,1.15,1.62,1,1,0,0,0,.52.07c.5-.07.77-.61,1.07-1a3.1,3.1,0,0,1,1.49-1.08,2.48,2.48,0,0,0,1-.44,1.11,1.11,0,0,0,.28-1,2.54,2.54,0,0,0-.42-.95C221.92,377.33,219.53,378.3,218.59,380Z"/>
          </g>
          <g>
            <path class="cls-5" d="M361.55,324.44c0,2.83-1.84,5.11-4.11,5.11s-4.12-2.28-4.12-5.11,1.85-5.11,4.12-5.11S361.55,321.62,361.55,324.44Z"/>
            <ellipse class="cls-3" cx="355.91" cy="323.61" rx="4.11" ry="5.11"/>
            <path class="cls-11" d="M353.34,321.45a2.69,2.69,0,0,0-.38,1.61,1.6,1.6,0,0,0,.92,1.32.86.86,0,0,0,.42.06c.41-.07.63-.5.87-.84a2.4,2.4,0,0,1,1.21-.87,2,2,0,0,0,.82-.36.88.88,0,0,0,.22-.78,1.92,1.92,0,0,0-.33-.76C356,319.3,354.1,320.08,353.34,321.45Z"/>
          </g>
          <g>
            <ellipse class="cls-5" cx="354.09" cy="193.17" rx="4.11" ry="5.11"/>
            <ellipse class="cls-3" cx="352.56" cy="192.34" rx="4.11" ry="5.11"/>
            <path class="cls-11" d="M350,190.18a2.69,2.69,0,0,0-.38,1.61,1.57,1.57,0,0,0,.92,1.31.77.77,0,0,0,.42.07c.41-.07.63-.51.87-.84a2.4,2.4,0,0,1,1.21-.87,2.1,2.1,0,0,0,.82-.36.88.88,0,0,0,.22-.78,1.8,1.8,0,0,0-.34-.76C352.69,188,350.75,188.81,350,190.18Z"/>
          </g>
          <g>
            <ellipse class="cls-5" cx="206.7" cy="384.21" rx="5.09" ry="6.32"/>
            <ellipse class="cls-3" cx="204.81" cy="383.18" rx="5.09" ry="6.32"/>
            <path class="cls-11" d="M201.64,380.51a3.35,3.35,0,0,0-.48,2,2,2,0,0,0,1.14,1.62,1,1,0,0,0,.52.08c.51-.08.78-.62,1.08-1a3,3,0,0,1,1.49-1.08,2.48,2.48,0,0,0,1-.45,1.08,1.08,0,0,0,.27-1,2.22,2.22,0,0,0-.42-.94C205,377.85,202.57,378.82,201.64,380.51Z"/>
          </g>
          <g>
            <path class="cls-9" d="M78.39,197.84v6.52a16.52,16.52,0,0,0,9.59,6.2c6.24,1.28,17.34,2.21,24.06,0a31.73,31.73,0,0,0,10.08-5.1l.55-6.41-27,3.87,1.57-4.46-.12-7-7.53.92Z"/>
            <path class="cls-3" d="M89,189.36S78.4,194,78.39,197.84c0,5.09,15.18,8.1,23.81,7.16s20.47-5.95,20.47-5.95l-9.18-3s-7.23,3.49-14.93,2.6-9.91-2.1-8.18-4,6.73-3.22,6.73-3.22Z"/>
          </g>
          <polygon class="cls-5" points="229.68 241.24 336.51 212.11 338.69 322.68 345.59 319.79 341.74 200.63 229.68 227.93 229.68 241.24"/>
          <polygon class="cls-3" points="0 168.43 214.76 213.91 358.55 185.66 338.69 183.97 214.76 207.39 23.08 169.53 0 168.43"/>
        </g>
        <path class="cls-12" d="M189.17,145.48a8.88,8.88,0,0,0,10.64-8.35,1.22,1.22,0,0,0-2.43,0,5.56,5.56,0,0,1-.64,2.57,6.4,6.4,0,0,1-1.86,2.21c.15-.12-.15.1-.15.1l-.3.21c-.22.14-.45.27-.68.39l-.39.19c.19-.09-.13,0-.16.06a7,7,0,0,1-.69.22,6.41,6.41,0,0,1-.76.16c-.09,0-.08,0,0,0l-.23,0-.36,0c-.25,0-.49,0-.73,0s.1,0-.15,0l-.48-.1a1.26,1.26,0,0,0-1.5.85,1.24,1.24,0,0,0,.85,1.5Z"/>
        <path class="cls-12" d="M203.78,132.43a4.38,4.38,0,0,1,1.58,1c.15.15.29.31.43.47s0-.07,0,0l.15.22q.18.27.33.54l.12.24s.15.32.09.19l.06.15c0,.1.07.2.1.3a5.12,5.12,0,0,1,.15.56c0,.09,0,.17.05.26.07.33,0-.24,0,.09a5.54,5.54,0,0,1,0,1.15c0,.07-.06.37,0,.09,0,.09,0,.18,0,.26s-.09.37-.15.56-.07.19-.11.29l0,.1a1.21,1.21,0,1,0,2.09,1.23,7.46,7.46,0,0,0-4.21-10.08,1.23,1.23,0,0,0-1.5.84,1.25,1.25,0,0,0,.85,1.5Z"/>
        <path class="cls-12" d="M202.52,144.93a3.23,3.23,0,0,1,0,.44c0,.06,0,.12,0,.18s0-.32,0,0a2.36,2.36,0,0,1-.1.38.25.25,0,0,0,0,.07l0-.09a.53.53,0,0,0-.08.17l-.21.34c-.13.22.18-.2,0,0l-.15.16c-.06.06-.24.17-.26.24l.07-.05-.06,0-.18.11-.17.09c-.1,0,.28-.11,0,0l-.39.11-.11,0,.14,0a1.09,1.09,0,0,0-.18,0,2.8,2.8,0,0,1-.41,0c-.13,0-.26-.08,0,0l-.22-.05-.35-.1c-.24-.08.22.11,0,0l-.19-.1-.19-.12c-.2-.12.2.17,0,0a1.3,1.3,0,0,0-.86-.35,1.25,1.25,0,0,0-.86.35,1.23,1.23,0,0,0,0,1.72,4.39,4.39,0,0,0,4.88.56,4.33,4.33,0,0,0,2.21-4.07,1.31,1.31,0,0,0-.36-.86,1.19,1.19,0,0,0-.86-.35,1.21,1.21,0,0,0-1.21,1.21Z"/>
        <path class="cls-12" d="M168.5,150c.1,1,0,2.19.91,2.78a10.28,10.28,0,0,0,1.9.89,12,12,0,0,0,4.25.73,12.45,12.45,0,0,0,8-2.92,1.23,1.23,0,0,0,0-1.72,1.24,1.24,0,0,0-1.72,0,10,10,0,0,1-11.35.83l.6,1.05c-.05-.54-.1-1.09-.16-1.64a1.22,1.22,0,0,0-2.43,0Z"/>
        <path class="cls-12" d="M170.18,143.35a20.34,20.34,0,0,0,12.62-2.74,1.22,1.22,0,0,0-1.23-2.1,18.08,18.08,0,0,1-11.39,2.41,1.21,1.21,0,0,0-1.21,1.21,1.25,1.25,0,0,0,1.21,1.22Z"/>
        <path class="cls-12" d="M138.38,146.5a11.22,11.22,0,0,0,14.48-.52c1.14-1.07-.58-2.79-1.72-1.72a8.73,8.73,0,0,1-11,.52,1.25,1.25,0,0,0-1.72,0,1.22,1.22,0,0,0,0,1.72Z"/>
        <path class="cls-12" d="M147.84,140.07a18.66,18.66,0,0,0,10.61-1.32,1.23,1.23,0,0,0,.44-1.66,1.26,1.26,0,0,0-1.67-.44,15.65,15.65,0,0,1-8.73,1.07,1.26,1.26,0,0,0-1.5.85,1.24,1.24,0,0,0,.85,1.5Z"/>
        <path class="cls-12" d="M162,133.85a13.76,13.76,0,0,0,9.2-1.21,1.22,1.22,0,0,0-1.23-2.1,11.16,11.16,0,0,1-7.33,1,1.24,1.24,0,0,0-1.49.85,1.22,1.22,0,0,0,.85,1.49Z"/>
        <path class="cls-12" d="M157.42,179a30.43,30.43,0,0,0,22.51,1.59,29.36,29.36,0,0,0,6-2.69,1.23,1.23,0,0,0,0-2.1,7.23,7.23,0,0,0-5.05-.78,1.21,1.21,0,1,0,.65,2.34,4.62,4.62,0,0,1,3.17.54v-2.1a28,28,0,0,1-20.45,3.09,27.23,27.23,0,0,1-5.6-2,1.25,1.25,0,0,0-1.66.43,1.21,1.21,0,0,0,.43,1.66Z"/>
        <path class="cls-12" d="M194.5,179.22a16.35,16.35,0,0,0,12.36-4.48c1.13-1.09-.59-2.8-1.72-1.72a14,14,0,0,1-10.64,3.77,1.22,1.22,0,0,0-1.22,1.22,1.24,1.24,0,0,0,1.22,1.21Z"/>
        <path class="cls-12" d="M206.58,168.56a13.4,13.4,0,0,0,11-.56,1.22,1.22,0,1,0-1.23-2.1,11,11,0,0,1-9.13.31,1.23,1.23,0,0,0-1.5.85,1.25,1.25,0,0,0,.85,1.5Z"/>
        <path class="cls-12" d="M214.23,158.56a14.32,14.32,0,0,0,9.3-2.53,1.25,1.25,0,0,0,.43-1.66,1.22,1.22,0,0,0-1.66-.44,12.07,12.07,0,0,1-8.07,2.2,1.22,1.22,0,1,0,0,2.43Z"/>
        <path class="cls-12" d="M246.35,157.13c.26,0-.23,0,.09,0l.31.09c.28.08-.21-.12.05,0l.24.12.31.2c-.17-.11-.06,0,0,0a4.83,4.83,0,0,1,.38.4c-.21-.24,0,.07.08.12s.1.16.14.24l.12.25c-.13-.27,0,0,0,.05s.06.24.09.36,0-.24,0,0c0,.09,0,.18,0,.27s0,.4,0,.21,0,.16,0,.2a2.58,2.58,0,0,0-.08.26c-.09.28.12-.21,0,.05l-.15.27c0,.06-.24.33,0,.1l-.18.2-.2.2-.14.12.07-.05a5.43,5.43,0,0,1-.51.32c-.12.06-.24.09,0,0l-.31.11-.31.07c-.24.06.24,0,0,0h-.27c-.07,0-.47-.06-.14,0a1.24,1.24,0,0,0-1.49.85,1.23,1.23,0,0,0,.85,1.49,4.79,4.79,0,0,0,4.94-2.33,4.52,4.52,0,0,0-.79-5.36,4.61,4.61,0,0,0-3-1.4,1.22,1.22,0,0,0-1.21,1.22,1.24,1.24,0,0,0,1.21,1.21Z"/>
        <path class="cls-12" d="M260,163.16a9.42,9.42,0,0,1-.49.88c-.09.15-.19.29-.28.43a2.06,2.06,0,0,1-.3.41c.11-.09.09-.11,0,0l-.14.17-.34.39c-.23.24-.47.48-.72.71s-.25.23-.38.34l-.18.14c-.12.1-.08.12,0,0a1.55,1.55,0,0,1-.41.3l-.42.28c-.29.17-.58.34-.89.49l-.41.2s-.33.16,0,0l-.26.1a1.25,1.25,0,0,0-.85,1.49,1.23,1.23,0,0,0,1.5.85,12.68,12.68,0,0,0,6.74-6,1.21,1.21,0,1,0-2.1-1.22Z"/>
        <path class="cls-12" d="M283.07,168.15a.51.51,0,0,1,0,.17c0-.17,0-.21,0-.12s0,.2,0,.3a2.79,2.79,0,0,1,0,.5s0,.22,0,.25c0-.19,0-.21,0-.08l0,.13a4.39,4.39,0,0,1-.13.52c0,.08-.05.16-.08.24l-.06.16a.78.78,0,0,0,0-.14,1.74,1.74,0,0,1-.26.53l-.27.43c-.09.12-.11.18,0,0-.06.08-.13.15-.19.22a4.83,4.83,0,0,1-.38.4,3.17,3.17,0,0,0-.39.34l.05,0-.07,0-.25.16a4.39,4.39,0,0,1-.47.27l-.23.1c.26-.15.07,0,0,0a5.15,5.15,0,0,1-.56.16l-.25,0c-.28.05.28,0,0,0a5.76,5.76,0,0,1-.59,0,1.22,1.22,0,0,0,0,2.43,6.36,6.36,0,0,0,4.94-2.28,6.52,6.52,0,0,0,1.54-5.44,1.23,1.23,0,0,0-1.5-.85,1.24,1.24,0,0,0-.85,1.49Z"/>
        <path class="cls-12" d="M236.39,181.9a27.36,27.36,0,0,0,13-.47,1.21,1.21,0,0,0-.64-2.34,24.68,24.68,0,0,1-11.74.46,1.26,1.26,0,0,0-1.5.85,1.25,1.25,0,0,0,.85,1.5Z"/>
        <path class="cls-12" d="M231.67,190.17a26.39,26.39,0,0,0,7.68-.4,1.22,1.22,0,0,0,.85-1.49,1.25,1.25,0,0,0-1.5-.85,24.56,24.56,0,0,1-7,.31,1.22,1.22,0,0,0-1.21,1.22,1.24,1.24,0,0,0,1.21,1.21Z"/>
        <path class="cls-12" d="M205.23,192.56a11.87,11.87,0,0,0,13-1.45,1.23,1.23,0,0,0,0-1.72,1.25,1.25,0,0,0-1.72,0,9.32,9.32,0,0,1-10,1.07c-1.39-.71-2.62,1.38-1.23,2.1Z"/>
        <path class="cls-12" d="M217,182.92a20.25,20.25,0,0,0,7.51-2,1.21,1.21,0,1,0-1.22-2.1A17.14,17.14,0,0,1,220.2,180c-.54.14-1.1.27-1.66.36a10.86,10.86,0,0,1-1.55.18,1.24,1.24,0,0,0-1.22,1.22,1.23,1.23,0,0,0,1.22,1.21Z"/>
        <path class="cls-12" d="M47,166.73a6.37,6.37,0,0,0,7.82,1,1.22,1.22,0,0,0-1.23-2.1,3.79,3.79,0,0,1-.34.2,1.24,1.24,0,0,1-.2.1c-.16.08,0,0,.05,0s-.33.12-.41.14l-.38.1-.21,0c-.17,0,0,0,.06,0a1,1,0,0,1-.39,0,2.67,2.67,0,0,1-.4,0,3.11,3.11,0,0,0-.43,0c.06,0,.22,0,.06,0l-.22,0-.38-.1-.37-.12-.09,0q-.12-.06.09,0s-.12,0-.16-.07a7.34,7.34,0,0,1-.71-.42c-.14-.09.17.14,0,0l-.17-.14c-.1-.1-.21-.2-.31-.31A1.23,1.23,0,0,0,47,165a1.25,1.25,0,0,0,0,1.72Z"/>
        <path class="cls-12" d="M53.46,155.64a12.35,12.35,0,0,0,6.59,1.05,1.24,1.24,0,0,0,1.21-1.22c0-.59-.54-1.3-1.21-1.21a12.58,12.58,0,0,1-1.5.09q-.37,0-.75,0l-.32,0-.21,0h0a14.24,14.24,0,0,1-1.41-.31c-.24-.07-.48-.14-.71-.23l-.31-.11h0l-.2-.09a1.22,1.22,0,0,0-1.23,2.1Z"/>
        <path class="cls-12" d="M93.76,158.51a13.56,13.56,0,0,0,14.6.28c1.32-.83.1-2.93-1.23-2.09A11.16,11.16,0,0,1,95,156.41a1.22,1.22,0,0,0-1.66.43,1.24,1.24,0,0,0,.43,1.67Z"/>
        <path class="cls-12" d="M112.81,171.45l4.13.47a1.21,1.21,0,0,0,.86-.35,1.26,1.26,0,0,0,.36-.86,1.24,1.24,0,0,0-.36-.86,1.42,1.42,0,0,0-.86-.36l-4.13-.47a1.21,1.21,0,0,0-.86.35,1.25,1.25,0,0,0-.35.86,1.24,1.24,0,0,0,.35.86,1.47,1.47,0,0,0,.86.36Z"/>
        <path class="cls-12" d="M207.19,201.51a22.7,22.7,0,0,0,19-.17,1.22,1.22,0,0,0,.44-1.66,1.24,1.24,0,0,0-1.66-.44,20.05,20.05,0,0,1-16.59.17,1.25,1.25,0,0,0-1.66.44,1.22,1.22,0,0,0,.43,1.66Z"/>
        <path class="cls-12" d="M232.55,198.71a25,25,0,0,0,14.51-2.53c1.39-.71.16-2.8-1.23-2.1a22.75,22.75,0,0,1-13.28,2.2c-.65-.09-1.21.62-1.21,1.21a1.25,1.25,0,0,0,1.21,1.22Z"/>
        <path class="cls-12" d="M248.81,185.56a12.72,12.72,0,0,0,10.4,3.05c4.14-.53,7.85-2.6,11.25-4.93a1.25,1.25,0,0,0,.43-1.67,1.22,1.22,0,0,0-1.66-.43c-3,2.07-6.3,4-10,4.59a10.45,10.45,0,0,1-8.74-2.32c-1.13-1.08-2.85.64-1.71,1.71Z"/>
        <path class="cls-12" d="M222.15,171.84a11.12,11.12,0,0,0,12.45-3.27,1.25,1.25,0,0,0,0-1.72,1.22,1.22,0,0,0-1.72,0,8.79,8.79,0,0,1-10.08,2.65,1.21,1.21,0,1,0-.65,2.34Z"/>
        <path class="cls-12" d="M260.12,179.65a8,8,0,0,0,5.92-2.17,1.22,1.22,0,0,0-1.72-1.72l-.24.22-.12.1.05,0c-.19.11-.35.26-.54.37a5.18,5.18,0,0,1-.57.31l-.15.07c-.14.07,0,0,.07,0-.11,0-.23.09-.34.13l-.63.19-.31.07-.16,0s-.23,0,0,0,0,0,0,0h-.17l-.32,0a5.3,5.3,0,0,1-.69,0,1.22,1.22,0,0,0-1.22,1.22,1.25,1.25,0,0,0,1.22,1.21Z"/>
        <path class="cls-12" d="M279.25,187.86a25.89,25.89,0,0,0,8.56-2.85,1.21,1.21,0,1,0-1.22-2.1,24,24,0,0,1-8,2.6,1.23,1.23,0,0,0-.85,1.5,1.24,1.24,0,0,0,1.49.85Z"/>
        <path class="cls-12" d="M301.77,189.41a13.65,13.65,0,0,0,9-6.24,1.21,1.21,0,0,0-2.1-1.22,11.21,11.21,0,0,1-7.5,5.12,1.21,1.21,0,1,0,.65,2.34Z"/>
        <path class="cls-12" d="M297,175.5a81.84,81.84,0,0,1,10.58,2.65c1.5.47,2.14-1.87.65-2.35a83.62,83.62,0,0,0-10.59-2.64,1.21,1.21,0,1,0-.64,2.34Z"/>
        <path class="cls-12" d="M318,182.9l2.78,2.26a1.33,1.33,0,0,0,.86.36,1.23,1.23,0,0,0,1.22-1.22,1.16,1.16,0,0,0-.36-.86l-2.78-2.26a1.23,1.23,0,0,0-1.72,0,1.21,1.21,0,0,0-.35.86,1.19,1.19,0,0,0,.35.86Z"/>
        <path class="cls-13" d="M183.7,190.66A12.11,12.11,0,0,0,196,190a1.25,1.25,0,0,0,.44-1.67,1.22,1.22,0,0,0-1.66-.43,9.68,9.68,0,0,1-9.82.71,1.21,1.21,0,0,0-1.23,2.09Z"/>
        <path class="cls-13" d="M194.5,186.54A14.73,14.73,0,0,0,202,185a1.22,1.22,0,0,0,.44-1.66,1.24,1.24,0,0,0-1.66-.44l-.44.21s-.35.16-.16.08l-.81.3a13.37,13.37,0,0,1-1.65.44l-.36.07s-.51.08-.28,0l-.86.08a13.94,13.94,0,0,1-1.71,0,1.22,1.22,0,0,0-1.22,1.22,1.24,1.24,0,0,0,1.22,1.21Z"/>
        <path class="cls-13" d="M184.86,175.56a19.45,19.45,0,0,0,6.3-1.43,1.41,1.41,0,0,0,.73-.56,1.28,1.28,0,0,0,.12-.94,1.23,1.23,0,0,0-1.5-.85,18.17,18.17,0,0,1-2.87.94c-.48.11-1,.21-1.46.28-.08,0-.33.05-.11,0l-.44,0-.77.06a1.22,1.22,0,0,0,0,2.43Z"/>
        <path class="cls-13" d="M194.36,164a22.61,22.61,0,0,0,7.2-3.29,1.22,1.22,0,0,0-1.23-2.1,20.67,20.67,0,0,1-3.26,1.87,14.56,14.56,0,0,1-1.5.61q-.91.33-1.86.57a1.23,1.23,0,0,0-.85,1.49,1.24,1.24,0,0,0,1.5.85Z"/>
        <path class="cls-13" d="M161.3,162.06a18.86,18.86,0,0,0,9.34,2.42,1.22,1.22,0,0,0,0-2.43,16.37,16.37,0,0,1-8.11-2.09,1.22,1.22,0,1,0-1.23,2.1Z"/>
        <path class="cls-13" d="M180.15,161.77l4.61-1.33a1.22,1.22,0,0,0-.65-2.35l-4.6,1.34a1.21,1.21,0,0,0,.64,2.34Z"/>
        <path class="cls-13" d="M166.05,175a17.51,17.51,0,0,0,8.54-2.61,1.24,1.24,0,0,0,.43-1.66,1.22,1.22,0,0,0-1.66-.44,15,15,0,0,1-7.31,2.28,1.22,1.22,0,1,0,0,2.43Z"/>
        <path class="cls-13" d="M188.08,133.82a8.57,8.57,0,0,1,1.43-.07,3.6,3.6,0,0,1,.66.05c-.31-.08.08,0,.15,0l.33.06a10,10,0,0,1,1.32.4c.13.05.12.05,0,0l.17.07.26.13c.23.11.45.24.67.37a1.22,1.22,0,0,0,1.66-.44,1.24,1.24,0,0,0-.44-1.66,9.68,9.68,0,0,0-6.19-1.36,1.32,1.32,0,0,0-.86.35,1.21,1.21,0,0,0-.35.86c0,.59.54,1.3,1.21,1.22Z"/>
        <path class="cls-13" d="M206.35,145.06c.75,1.23,1.51,2.46,2.27,3.69a1.21,1.21,0,1,0,2.09-1.23l-2.26-3.69a1.24,1.24,0,0,0-1.67-.43,1.23,1.23,0,0,0-.43,1.66Z"/>
        <path class="cls-13" d="M222,163.54a31.21,31.21,0,0,0,8.9-2.34,1.22,1.22,0,0,0,.44-1.66,1.25,1.25,0,0,0-1.66-.44,27.66,27.66,0,0,1-7.68,2,1.25,1.25,0,0,0-1.22,1.21,1.23,1.23,0,0,0,1.22,1.22Z"/>
        <path class="cls-13" d="M235.41,158.16a16.61,16.61,0,0,1,2.53,2.5l.12.15c.08.1.11.12,0,0,.1.12.18.25.27.38s.34.48.5.72c.32.51.61,1,.88,1.57a1.23,1.23,0,0,0,1.67.44,1.25,1.25,0,0,0,.43-1.66,17.31,17.31,0,0,0-4.69-5.82,1.35,1.35,0,0,0-.86-.35,1.27,1.27,0,0,0-.86.35,1.23,1.23,0,0,0,0,1.72Z"/>
        <path class="cls-13" d="M243.78,168.67a.77.77,0,0,1,0,.15c0,.13,0,.1,0-.09,0,.09,0,.21,0,.3s0,.36,0,.54,0,.36,0,.54,0,.11,0,.16c0-.2,0-.23,0-.1s0,.18,0,.27a7.86,7.86,0,0,1-.31,1.08l-.06.14c.07-.17.08-.2,0-.08l-.1.21q-.14.27-.3.54a1.22,1.22,0,0,0,.43,1.66,1.25,1.25,0,0,0,1.67-.43,7.85,7.85,0,0,0,1-5.54,1.22,1.22,0,0,0-1.49-.85,1.25,1.25,0,0,0-.85,1.5Z"/>
        <path class="cls-13" d="M150.33,187.22a16.26,16.26,0,0,0,10.54,2.09,1.22,1.22,0,0,0,.85-1.5,1.25,1.25,0,0,0-1.49-.85,13.51,13.51,0,0,1-8.67-1.84,1.22,1.22,0,0,0-1.23,2.1Z"/>
        <path class="cls-13" d="M170.18,187.91a23.45,23.45,0,0,0,6.73-.57,1.21,1.21,0,1,0-.65-2.34c-.52.12-1,.22-1.58.3l-.37.06-.17,0-.8.08a23.8,23.8,0,0,1-3.16,0,1.23,1.23,0,0,0-1.22,1.21,1.24,1.24,0,0,0,1.22,1.22Z"/>
        <path class="cls-13" d="M178,193.43a11.18,11.18,0,0,0,4-.55,1.21,1.21,0,1,0-.64-2.34,11.31,11.31,0,0,1-1.81.42l.32,0A10.38,10.38,0,0,1,178,191a1.22,1.22,0,0,0-1.22,1.21,1.25,1.25,0,0,0,1.22,1.22Z"/>
        <path class="cls-13" d="M129.47,182.84a24.43,24.43,0,0,0,9.5.91,1.24,1.24,0,0,0,1.22-1.21,1.22,1.22,0,0,0-1.22-1.22,22.69,22.69,0,0,1-8.86-.82,1.21,1.21,0,1,0-.64,2.34Z"/>
        <path class="cls-13" d="M254,194q6.25-1.12,12.37-2.85a1.21,1.21,0,0,0-.64-2.34q-6.12,1.73-12.38,2.85a1.22,1.22,0,0,0-.85,1.49,1.25,1.25,0,0,0,1.5.85Z"/>
        <path class="cls-13" d="M272.82,192.9a19.52,19.52,0,0,0,6.54-3.94,1.23,1.23,0,0,0,0-1.72,1.25,1.25,0,0,0-1.72,0c-.21.2-.43.39-.65.58l-.32.25c-.14.12.15-.11,0,0l-.16.12c-.47.35-.95.67-1.44,1s-1,.56-1.49.81c-.24.11-.49.23-.74.33.16-.06.06,0,0,0l-.19.07-.43.16a1.25,1.25,0,0,0-.85,1.5,1.23,1.23,0,0,0,1.49.85Z"/>
        <path class="cls-13" d="M274.53,182.3a8.43,8.43,0,0,0,2.37-1.78,9.24,9.24,0,0,0,1.71-2.73,1.17,1.17,0,0,0-.12-.93,1.28,1.28,0,0,0-.73-.56,1.21,1.21,0,0,0-.93.12,1.45,1.45,0,0,0-.56.73s0,0,0,0l.12-.29a7.51,7.51,0,0,1-.93,1.6l.19-.24a7.84,7.84,0,0,1-1.35,1.35l.25-.19a7.9,7.9,0,0,1-1.23.77,1.22,1.22,0,0,0-.44,1.66,1.25,1.25,0,0,0,1.67.44Z"/>
        <path class="cls-13" d="M269.5,172.68l3.18-4.15a1.22,1.22,0,0,0-.43-1.66,1.25,1.25,0,0,0-.94-.13,1.55,1.55,0,0,0-.73.56c-1.06,1.39-2.12,2.77-3.17,4.16a1.21,1.21,0,0,0-.13.93,1.25,1.25,0,0,0,.56.73,1.23,1.23,0,0,0,.94.12,1.37,1.37,0,0,0,.72-.56Z"/>
        <path class="cls-13" d="M272.51,163.56l10.54.58a1.22,1.22,0,0,0,1.22-1.21,1.24,1.24,0,0,0-1.22-1.22l-10.54-.58a1.22,1.22,0,0,0-1.22,1.22,1.24,1.24,0,0,0,1.22,1.21Z"/>
        <path class="cls-13" d="M286.58,163.87l7.4,4.5a1.22,1.22,0,0,0,1.66-.44,1.24,1.24,0,0,0-.43-1.66l-7.4-4.49a1.21,1.21,0,1,0-1.23,2.09Z"/>
        <path class="cls-13" d="M290.1,178.89a22.36,22.36,0,0,1,0,3.17,17.8,17.8,0,0,1-.46,2.92,1.23,1.23,0,0,0,.85,1.49,1.22,1.22,0,0,0,1.49-.84,23.52,23.52,0,0,0,.57-6.74,1.22,1.22,0,0,0-2.43,0Z"/>
        <path class="cls-13" d="M298.36,181.19v2.75a1.23,1.23,0,0,0,1.22,1.22,1.24,1.24,0,0,0,1.21-1.22v-2.75a1.22,1.22,0,1,0-2.43,0Z"/>
        <path class="cls-13" d="M300.41,169.27l10,5.71a1.22,1.22,0,0,0,1.23-2.1l-10-5.71a1.22,1.22,0,0,0-1.23,2.1Z"/>
        <path class="cls-13" d="M319.18,178.54l5.34,3.89a1.21,1.21,0,0,0,1.66-.43,1.25,1.25,0,0,0-.43-1.67l-5.35-3.89a1.22,1.22,0,0,0-1.66.44,1.25,1.25,0,0,0,.44,1.66Z"/>
        <g>
          <g>
            <path class="cls-14" d="M146.3,123.15a22.36,22.36,0,1,1-23.66-21A22.37,22.37,0,0,1,146.3,123.15Z"/>
            <path class="cls-15" d="M142.27,122.53A16.5,16.5,0,1,1,124.8,107,16.5,16.5,0,0,1,142.27,122.53Z"/>
            <path class="cls-16" d="M125.12,112.22c-.41,5,.68,11.3-8.21,12.6,2.72,1.07,5.74,2,7.73,4.34a19.76,19.76,0,0,1,3.77,8.42c.33-3-.51-5.63,1.11-8.71a8.46,8.46,0,0,1,5.93-4.43c-2.95-1.42-5.42-1-7.36-4.33a24.92,24.92,0,0,1-1.92-3.92c-.51-1.38-.49-3.56-1.47-4.53Z"/>
          </g>
          <path class="cls-11" d="M129.28,123.57c-1.06-1.93-1.75-1.56-2.21-.56-3.43-.91-1.09,9.17,2.11,5.92C130.26,127.83,129.93,124.77,129.28,123.57Z"/>
        </g>
        <g>
          <g>
            <path class="cls-14" d="M313.45,152.34a26.76,26.76,0,1,1-28.32-25.11A26.78,26.78,0,0,1,313.45,152.34Z"/>
            <path class="cls-15" d="M308.63,151.6a19.76,19.76,0,1,1-20.91-18.54A19.76,19.76,0,0,1,308.63,151.6Z"/>
            <path class="cls-16" d="M288.09,139.25c-.48,6.05.82,13.53-9.82,15.08,3.26,1.29,6.87,2.37,9.26,5.2A23.79,23.79,0,0,1,292,169.6c.39-3.52-.61-6.73,1.33-10.41a10.09,10.09,0,0,1,7.09-5.31c-3.53-1.69-6.49-1.22-8.81-5.18a30.82,30.82,0,0,1-2.3-4.69c-.61-1.65-.59-4.26-1.76-5.42Z"/>
          </g>
          <path class="cls-11" d="M293.07,152.84c-1.26-2.31-2.08-1.87-2.64-.67-4.11-1.08-1.3,11,2.53,7.08C294.25,157.93,293.86,154.28,293.07,152.84Z"/>
        </g>
        <g>
          <g>
            <path class="cls-14" d="M107.68,175.39a26.77,26.77,0,1,1-25.26-28.18A26.76,26.76,0,0,1,107.68,175.39Z"/>
            <path class="cls-15" d="M103,174.1a19.75,19.75,0,1,1-18.64-20.81A19.74,19.74,0,0,1,103,174.1Z"/>
            <path class="cls-16" d="M84,159.49c-1.18,5.94-.74,13.53-11.49,13.85,3.09,1.65,6.56,3.14,8.61,6.23a23.56,23.56,0,0,1,3.32,10.52c.8-3.46.17-6.76,2.52-10.2a10.09,10.09,0,0,1,7.65-4.46c-3.31-2.08-6.31-2-8.16-6.15a30.76,30.76,0,0,1-1.75-4.92c-.41-1.71-.09-4.3-1.12-5.59Z"/>
          </g>
          <path class="cls-11" d="M87.38,173.56c-1-2.45-1.86-2.1-2.55-1-4-1.54-2.55,10.76,1.7,7.33C88,178.75,88,175.07,87.38,173.56Z"/>
        </g>
        <path class="cls-11" d="M97.16,142.47a14.13,14.13,0,0,1,8.57,1.45,1.25,1.25,0,0,0,1.67-.44,1.22,1.22,0,0,0-.44-1.66,17,17,0,0,0-10.45-1.7,1.23,1.23,0,0,0-.85,1.5,1.26,1.26,0,0,0,1.5.85Z"/>
        <path class="cls-11" d="M111.31,149.62a18.72,18.72,0,0,1,7.42,0,1.24,1.24,0,0,0,1.5-.85,1.22,1.22,0,0,0-.85-1.49,21.47,21.47,0,0,0-8.71,0,1.21,1.21,0,1,0,.64,2.34Z"/>
        <path class="cls-11" d="M120.55,156.71l6.46-1.38a1.22,1.22,0,0,0,.85-1.5,1.23,1.23,0,0,0-1.49-.84l-6.47,1.38a1.22,1.22,0,0,0-.85,1.49,1.24,1.24,0,0,0,1.5.85Z"/>
        <path class="cls-11" d="M125.12,163.48l6.48-1.68a1.21,1.21,0,0,0-.65-2.34l-6.48,1.68a1.23,1.23,0,0,0-.85,1.49,1.24,1.24,0,0,0,1.5.85Z"/>
        <path class="cls-11" d="M144.34,159l5.74-.45a1.25,1.25,0,0,0,1.22-1.22,1.23,1.23,0,0,0-1.22-1.21l-5.74.45a1.22,1.22,0,1,0,0,2.43Z"/>
        <path class="cls-11" d="M147,129.77a13.94,13.94,0,0,0,4.94-.28,1.24,1.24,0,0,0,.85-1.5,1.26,1.26,0,0,0-1.5-.85c-.37.09-.74.16-1.12.22s.23,0,0,0l-.31,0-.57,0a12.3,12.3,0,0,1-2.27-.11,1.24,1.24,0,0,0-.86.36,1.21,1.21,0,0,0,0,1.72,1.48,1.48,0,0,0,.86.36Z"/>
        <path class="cls-11" d="M150,150.67a.86.86,0,0,1,.13-.2l-.19.24a2.13,2.13,0,0,1,.26-.26l-.24.19a1.31,1.31,0,0,1,.36-.21l-.29.12a1.82,1.82,0,0,1,.4-.11l-.32,0h.35a1,1,0,0,0,.47-.11,1.08,1.08,0,0,0,.64-.64.93.93,0,0,0,.11-.47,1.26,1.26,0,0,0-.36-.86l-.25-.19a1.18,1.18,0,0,0-.61-.16,2.48,2.48,0,0,0-.77.06,2.76,2.76,0,0,0-.72.28,2.58,2.58,0,0,0-.6.44,2.49,2.49,0,0,0-.47.61,1.29,1.29,0,0,0-.13.94.91.91,0,0,0,.22.41,1,1,0,0,0,.34.32,1.23,1.23,0,0,0,1.67-.44Z"/>
        <path class="cls-11" d="M195.31,199.51a18.51,18.51,0,0,0,5.7-.29,1.21,1.21,0,1,0-.64-2.34l-.67.12c-.12,0-.24.05-.36.06h-.09c-.43.05-.86.08-1.3.1a17.93,17.93,0,0,1-2.64-.09,1.22,1.22,0,0,0-1.22,1.21,1.26,1.26,0,0,0,1.22,1.22Z"/>
        <path class="cls-11" d="M204.36,191.35l1.54-1.15a.92.92,0,0,0,.34-.31.89.89,0,0,0,.21-.41.91.91,0,0,0,0-.49.93.93,0,0,0-.15-.45,1.19,1.19,0,0,0-.72-.56l-.33,0a1.19,1.19,0,0,0-.61.17l-1.53,1.15a.85.85,0,0,0-.34.31,1.07,1.07,0,0,0-.24.9.82.82,0,0,0,.14.45,1.24,1.24,0,0,0,.73.56l.32,0a1.17,1.17,0,0,0,.61-.17Z"/>
        <path class="cls-11" d="M211,186.13h5a1.22,1.22,0,1,0,0-2.43h-5a1.22,1.22,0,0,0,0,2.43Z"/>
        <path class="cls-11" d="M71.09,151.59a25.84,25.84,0,0,0,5.36-1.54,1.34,1.34,0,0,0,.72-.56,1.21,1.21,0,0,0-1.37-1.78,25.63,25.63,0,0,1-5.36,1.53,1.23,1.23,0,0,0-.85,1.5,1.26,1.26,0,0,0,1.5.85Z"/>
        <path class="cls-11" d="M72.62,145.85l8.4-2.43a1.21,1.21,0,0,0-.65-2.34L72,143.51a1.21,1.21,0,0,0,.64,2.34Z"/>
        <path class="cls-11" d="M84.9,137.87l8.81-1.52a1.22,1.22,0,0,0,.85-1.49,1.24,1.24,0,0,0-1.49-.85l-8.82,1.52A1.22,1.22,0,0,0,83.4,137a1.25,1.25,0,0,0,1.5.85Z"/>
        <path class="cls-11" d="M90.25,147.4l.33-.05-.33,0a4.34,4.34,0,0,1,1.08,0l-.33,0a4.1,4.1,0,0,1,1,.28l-.29-.13.26.12a1.26,1.26,0,0,0,.93.12,1.22,1.22,0,0,0,.73-.55,1.24,1.24,0,0,0,.12-.94,1.18,1.18,0,0,0-.56-.73,6,6,0,0,0-.94-.38,6.25,6.25,0,0,0-1-.18,5.22,5.22,0,0,0-1.72.1,1.21,1.21,0,0,0-.85,1.5,1.22,1.22,0,0,0,.56.72,1.26,1.26,0,0,0,.93.12Z"/>
        <path class="cls-11" d="M123.43,146.48a8.44,8.44,0,0,0,4,1.37,1.16,1.16,0,0,0,.86-.36,1.24,1.24,0,0,0,.36-.85,1.2,1.2,0,0,0-.36-.86,1.34,1.34,0,0,0-.86-.36l-.35,0,.32.05a7.19,7.19,0,0,1-1.88-.52l.29.12a7,7,0,0,1-1.2-.65,1.21,1.21,0,0,0-.93-.12,1.21,1.21,0,0,0-.29,2.22Z"/>
        <path class="cls-11" d="M113,136.21a14.84,14.84,0,0,0,6,.88,1.24,1.24,0,0,0,1.21-1.22,1.21,1.21,0,0,0-1.21-1.21,14.66,14.66,0,0,1-1.48,0l-.64,0-.42,0c-.27,0,.19,0-.1,0a14.53,14.53,0,0,1-2.76-.71,1.22,1.22,0,0,0-1.5.84,1.26,1.26,0,0,0,.85,1.5Z"/>
        <path class="cls-11" d="M169.63,140.14a9.43,9.43,0,0,0,4.46-1.67,1.36,1.36,0,0,0,.56-.73,1.22,1.22,0,0,0-1.79-1.37,8.78,8.78,0,0,1-1.61.91l.29-.12a8.62,8.62,0,0,1-2.17.59l.32-.05h-.06a1.36,1.36,0,0,0-.86.36,1.21,1.21,0,0,0,0,1.72,1.17,1.17,0,0,0,.86.35Z"/>
        <path class="cls-11" d="M188,132.08l2.69-.72a1.21,1.21,0,0,0,.85-1.49A1.23,1.23,0,0,0,190,129l-2.7.71a1.31,1.31,0,0,0-.73.56,1.28,1.28,0,0,0-.12.94,1.25,1.25,0,0,0,1.5.85Z"/>
        <path class="cls-11" d="M142.49,169.21a12.58,12.58,0,0,0,6.4-.7,1.25,1.25,0,0,0,.85-1.5,1.22,1.22,0,0,0-1.49-.85,11.46,11.46,0,0,1-1.4.46l-.61.14-.41.08c-.07,0-.37.08-.09,0a6.22,6.22,0,0,1-1.36.08l-.74,0-.31,0c-.05,0-.5-.06-.2,0a1.39,1.39,0,0,0-.94.13,1.18,1.18,0,0,0-.55.72,1.23,1.23,0,0,0,.85,1.5Z"/>
        <path class="cls-11" d="M161.13,169.58l2.3-.41a1.2,1.2,0,0,0,.72-.55,1.24,1.24,0,0,0,.13-.94,1.28,1.28,0,0,0-.56-.73l-.29-.12a1.2,1.2,0,0,0-.65,0l-2.29.41a1.21,1.21,0,0,0-.73.56,1.21,1.21,0,0,0,.44,1.66l.29.12a1.16,1.16,0,0,0,.64,0Z"/>
      </g>
    </g>
  </g>
</svg>
